<svg xmlns="http://www.w3.org/2000/svg" width="99.887" height="122.085" viewBox="0 0 99.887 122.085">
  <g id="Ownership" transform="translate(-166 -162)">
    <path id="Path_338" data-name="Path 338" d="M190,162.586v15.022h15.022Z" transform="translate(42.592 1.04)"/>
    <path id="Path_339" data-name="Path 339" d="M243.69,234.141a27.7,27.7,0,0,1,5.549.56V184.2H229.817a2.772,2.772,0,0,1-2.775-2.775V162H168.775A2.772,2.772,0,0,0,166,164.775v99.888a2.772,2.772,0,0,0,2.775,2.775H216.5a27.747,27.747,0,0,1,27.186-33.3Z" transform="translate(0 0)" fill="#919191"/>
    <path id="Path_340" data-name="Path 340" d="M208.2,190a22.2,22.2,0,1,0,22.2,22.2A22.221,22.221,0,0,0,208.2,190Zm0,27.747a5.523,5.523,0,0,0,3.923-1.626,2.774,2.774,0,0,1,3.923,3.923,11.1,11.1,0,1,1,0-15.693,2.774,2.774,0,1,1-3.923,3.923,5.549,5.549,0,1,0-3.923,9.473Z" transform="translate(35.493 49.69)"/>
  </g>
</svg>
